<svg width="123" height="126" viewBox="0 0 123 126" fill="none" xmlns="http://www.w3.org/2000/svg">
<path fill-rule="evenodd" clip-rule="evenodd" d="M25.6453 45.7295C22.8153 42.8995 19.1053 41.4795 15.3953 41.4795C11.6853 41.4795 7.97526 42.8895 5.14526 45.7295C2.31526 48.5495 0.905273 52.2695 0.905273 55.9795C0.905273 59.6895 2.31526 63.3995 5.14526 66.2295C7.97526 69.0595 11.6853 70.4695 15.3953 70.4695C19.1053 70.4695 22.8153 69.0595 25.6453 66.2295C28.4753 63.3995 29.8853 59.6895 29.8853 55.9795C29.8853 52.2695 28.4653 48.5595 25.6453 45.7295ZM22.6453 48.7295C21.9253 47.9995 20.9753 47.6395 20.0253 47.6395C19.0753 47.6395 18.1253 47.9995 17.4053 48.7295C16.6853 49.4495 16.3253 50.3995 16.3253 51.3495C16.3253 52.2995 16.6853 53.2495 17.4053 53.9695C18.1253 54.6895 19.0753 55.0495 20.0253 55.0495C20.9753 55.0495 21.9253 54.6895 22.6453 53.9695C23.3653 53.2495 23.7253 52.2995 23.7253 51.3495C23.7253 50.3995 23.3653 49.4595 22.6453 48.7295ZM56.6653 45.7295C53.8353 42.8995 50.1353 41.4795 46.4253 41.4795C42.7153 41.4795 39.0053 42.8895 36.1753 45.7295C33.3453 48.5495 31.9353 52.2695 31.9353 55.9795C31.9353 59.6895 33.3453 63.3995 36.1753 66.2295C39.0053 69.0595 42.7053 70.4695 46.4253 70.4695C50.1453 70.4695 53.8453 69.0595 56.6653 66.2295C59.4953 63.3995 60.9153 59.6895 60.9153 55.9795C60.9153 52.2695 59.4953 48.5595 56.6653 45.7295ZM53.6653 48.7295C52.9453 47.9995 51.9953 47.6395 51.0453 47.6395C50.0953 47.6395 49.1453 47.9995 48.4253 48.7295C47.7053 49.4495 47.3453 50.3995 47.3453 51.3495C47.3453 52.2995 47.7053 53.2495 48.4253 53.9695C49.1453 54.6895 50.0953 55.0495 51.0453 55.0495C51.9953 55.0495 52.9353 54.6895 53.6653 53.9695C54.3853 53.2495 54.7453 52.2995 54.7453 51.3495C54.7453 50.3995 54.3853 49.4595 53.6653 48.7295ZM87.6853 45.7295C84.8553 42.8995 81.1453 41.4795 77.4353 41.4795C73.7253 41.4795 70.0153 42.8895 67.1953 45.7295C64.3653 48.5495 62.9553 52.2695 62.9553 55.9795C62.9553 59.6895 64.3653 63.3995 67.1953 66.2295C70.0153 69.0595 73.7353 70.4695 77.4353 70.4695C81.1353 70.4695 84.8553 69.0595 87.6853 66.2295C90.5153 63.3995 91.9253 59.6895 91.9353 55.9795C91.9353 52.2695 90.5153 48.5595 87.6853 45.7295ZM84.6853 48.7295C83.9653 47.9995 83.0153 47.6395 82.0653 47.6395C81.1153 47.6395 80.1653 47.9995 79.4453 48.7295C78.7253 49.4495 78.3553 50.3995 78.3553 51.3495C78.3553 52.2995 78.7153 53.2495 79.4453 53.9695C80.1653 54.6895 81.1153 55.0495 82.0653 55.0495C83.0153 55.0495 83.9653 54.6895 84.6853 53.9695C85.4053 53.2495 85.7653 52.2995 85.7653 51.3495C85.7653 50.3995 85.4053 49.4595 84.6853 48.7295ZM118.715 45.7295C115.885 42.8995 112.175 41.4795 108.465 41.4795C104.755 41.4795 101.045 42.8895 98.2253 45.7295C95.3953 48.5495 93.9753 52.2695 93.9753 55.9795C93.9753 59.6895 95.3953 63.3995 98.2253 66.2295C101.055 69.0595 104.765 70.4695 108.465 70.4695C112.165 70.4695 115.885 69.0595 118.715 66.2295C121.545 63.3995 122.955 59.6895 122.955 55.9795C122.955 52.2695 121.545 48.5595 118.715 45.7295ZM115.715 48.7295C114.995 47.9995 114.045 47.6395 113.095 47.6395C112.145 47.6395 111.205 47.9995 110.475 48.7295C109.755 49.4495 109.395 50.3995 109.395 51.3495C109.395 52.2995 109.755 53.2495 110.475 53.9695C111.195 54.6895 112.145 55.0495 113.095 55.0495C114.045 55.0495 114.985 54.6895 115.715 53.9695C116.445 53.2495 116.805 52.2995 116.805 51.3495C116.805 50.3995 116.445 49.4595 115.715 48.7295ZM41.1553 73.0195C38.3253 70.1895 34.6153 68.7795 30.9053 68.7795C27.1953 68.7795 23.4953 70.1995 20.6653 73.0195C17.8353 75.8495 16.4153 79.5595 16.4153 83.2695C16.4153 86.9795 17.8353 90.6895 20.6653 93.5195C23.4953 96.3495 27.2053 97.7695 30.9053 97.7695C34.6053 97.7695 38.3253 96.3495 41.1553 93.5195C43.9853 90.6895 45.3953 86.9795 45.3953 83.2695C45.3953 79.5595 43.9853 75.8495 41.1553 73.0195ZM38.1553 76.0195C37.4353 75.2895 36.4853 74.9395 35.5353 74.9395C34.5853 74.9395 33.6453 75.2995 32.9153 76.0195C32.1953 76.7395 31.8253 77.6895 31.8253 78.6395C31.8253 79.5895 32.1853 80.5395 32.9153 81.2595C33.6353 81.9795 34.5853 82.3395 35.5353 82.3395C36.4853 82.3395 37.4253 81.9795 38.1553 81.2595C38.8753 80.5395 39.2453 79.5895 39.2453 78.6395C39.2453 77.6895 38.8753 76.7495 38.1553 76.0195ZM72.1753 73.0195C69.3453 70.1895 65.6353 68.7795 61.9253 68.7795C58.2153 68.7795 54.5053 70.1995 51.6753 73.0195C48.8453 75.8495 47.4353 79.5595 47.4353 83.2695C47.4353 86.9795 48.8553 90.6895 51.6753 93.5195C54.5053 96.3495 58.2153 97.7695 61.9253 97.7695C65.6353 97.7695 69.3453 96.3495 72.1753 93.5195C75.0053 90.6895 76.4153 86.9795 76.4153 83.2695C76.4153 79.5595 75.0053 75.8495 72.1753 73.0195ZM69.1753 76.0195C68.4553 75.2895 67.5053 74.9395 66.5553 74.9395C65.6053 74.9395 64.6653 75.2995 63.9353 76.0195C63.2153 76.7395 62.8553 77.6895 62.8553 78.6395C62.8553 79.5895 63.2153 80.5395 63.9353 81.2595C64.6653 81.9795 65.6053 82.3395 66.5553 82.3395C67.5053 82.3395 68.4553 81.9795 69.1753 81.2595C69.8953 80.5395 70.2553 79.5895 70.2553 78.6395C70.2553 77.6895 69.8953 76.7495 69.1753 76.0195ZM103.195 73.0195C100.365 70.1895 96.6553 68.7795 92.9453 68.7795C89.2353 68.7795 85.5253 70.1995 82.6953 73.0195C79.8653 75.8495 78.4553 79.5595 78.4553 83.2695C78.4553 86.9795 79.8753 90.6895 82.6953 93.5195C85.5253 96.3495 89.2353 97.7695 92.9453 97.7695C96.6553 97.7695 100.365 96.3495 103.195 93.5195C106.025 90.6895 107.435 86.9795 107.435 83.2695C107.435 79.5595 106.025 75.8495 103.195 73.0195ZM100.195 76.0195C99.4753 75.2895 98.5253 74.9395 97.5753 74.9395C96.6253 74.9395 95.6753 75.2995 94.9553 76.0195C94.2353 76.7395 93.8753 77.6895 93.8753 78.6395C93.8753 79.5895 94.2353 80.5395 94.9553 81.2595C95.6753 81.9795 96.6253 82.3395 97.5753 82.3395C98.5253 82.3395 99.4753 81.9795 100.195 81.2595C100.915 80.5395 101.275 79.5895 101.275 78.6395C101.275 77.6895 100.915 76.7495 100.195 76.0195ZM56.6553 100.59C53.8253 97.7595 50.1253 96.3495 46.4153 96.3395C42.7053 96.3395 38.9953 97.7595 36.1653 100.59C33.3353 103.42 31.9253 107.13 31.9253 110.84C31.9253 114.55 33.3353 118.26 36.1653 121.09C38.9953 123.92 42.6953 125.33 46.4153 125.33C50.1353 125.33 53.8353 123.92 56.6553 121.09C59.4853 118.26 60.9053 114.55 60.9053 110.84C60.9053 107.13 59.4853 103.42 56.6553 100.59ZM53.6553 103.59C52.9353 102.87 51.9853 102.51 51.0353 102.51C50.0853 102.51 49.1353 102.87 48.4153 103.59C47.6953 104.31 47.3353 105.26 47.3353 106.21C47.3353 107.16 47.6953 108.11 48.4153 108.83C49.1353 109.55 50.0853 109.919 51.0353 109.919C51.9853 109.919 52.9253 109.56 53.6553 108.83C54.3753 108.11 54.7353 107.16 54.7353 106.21C54.7353 105.26 54.3753 104.31 53.6553 103.59ZM87.6753 100.59C84.8453 97.7595 81.1353 96.3495 77.4253 96.3395C73.7253 96.3395 70.0053 97.7595 67.1853 100.59C64.3553 103.42 62.9453 107.13 62.9453 110.84C62.9453 114.55 64.3553 118.26 67.1853 121.09C70.0053 123.92 73.7253 125.33 77.4253 125.33C81.1253 125.33 84.8453 123.92 87.6753 121.09C90.5053 118.26 91.9153 114.55 91.9253 110.84C91.9253 107.13 90.5053 103.42 87.6753 100.59ZM84.6753 103.59C83.9553 102.87 83.0053 102.51 82.0553 102.51C81.1053 102.51 80.1553 102.87 79.4353 103.59C78.7153 104.31 78.3453 105.26 78.3453 106.21C78.3453 107.16 78.7053 108.11 79.4353 108.83C80.1553 109.55 81.1053 109.919 82.0553 109.919C83.0053 109.919 83.9553 109.56 84.6753 108.83C85.3953 108.11 85.7553 107.16 85.7553 106.21C85.7553 105.26 85.3953 104.31 84.6753 103.59Z" fill="#E40046"/>
<path d="M78.0253 13.9395C79.5653 13.5395 83.4553 18.9295 83.0153 19.6895C77.1153 21.2495 68.5353 29.8896 65.6453 36.3896C63.0353 42.2396 63.5453 44.8295 62.1053 44.2595C59.9253 43.3895 60.1553 39.7096 60.9353 36.0296C46.9853 33.5896 30.2053 22.2895 30.2053 3.43954C30.2053 -0.180458 29.5853 0.149522 34.8653 0.669522C52.1853 2.35952 59.6753 7.58957 61.7153 22.7796C61.7553 23.0696 58.5853 17.1296 51.2553 10.7696C45.0853 5.41956 36.5853 3.49951 35.7153 3.34951C35.1753 3.25951 42.9853 5.68952 49.5753 12.3595C57.5853 20.4695 61.9753 31.9795 61.9753 31.9795L62.2653 30.9795C64.6853 22.7695 70.4953 15.9796 78.0253 13.9496" fill="#572B10"/>
</svg>
